<svg width="410" height="256" viewBox="0 0 410 256" fill="none" xmlns="http://www.w3.org/2000/svg">
<g clip-path="url(#clip0_354_21216)">
<path d="M106.56 9.30273H27.7988V76.152H106.56V9.30273Z" fill="#FAFAFA"/>
<path d="M106.6 76.1438C106.6 76.1438 106.6 75.716 106.6 74.8991C106.6 74.0823 106.6 72.8842 106.6 71.3205C106.6 68.2087 106.6 63.5955 106.551 57.7531C106.551 46.0838 106.502 29.3812 106.461 9.28677L106.641 9.45792H27.921L28.126 9.25565C28.126 33.5822 28.126 56.4695 28.126 76.1127L27.9456 75.9338L84.9111 76.0271L100.86 76.1438H105.116H106.215H105.124H100.909L84.8783 76.1905L27.798 76.2761H27.6094V76.1438C27.6094 56.5006 27.6094 33.6133 27.6094 9.28677V9.09229H27.8308H106.551H106.731V9.25565C106.731 29.389 106.658 46.1227 106.641 57.8231C106.641 63.6499 106.6 68.2243 106.592 71.3594C106.592 72.9153 106.592 74.0978 106.592 74.9069C106.592 75.716 106.6 76.1438 106.6 76.1438Z" fill="#E0E0E0"/>
<path d="M58.0004 21.1813C58.0004 21.298 53.8512 21.3836 48.7426 21.3836C43.634 21.3836 39.4766 21.298 39.4766 21.1813C39.4766 21.0646 43.6258 20.9868 48.7426 20.9868C53.8594 20.9868 58.0004 21.0724 58.0004 21.1813Z" fill="#E0E0E0"/>
<path d="M91.3733 26.2076C91.3733 26.3166 79.9835 26.4021 65.9533 26.4021C51.923 26.4021 40.5332 26.3166 40.5332 26.2076C40.5332 26.0987 51.9148 26.0054 65.9533 26.0054C79.9917 26.0054 91.3733 26.0909 91.3733 26.2076Z" fill="#E0E0E0"/>
<path d="M42.9362 34.71H39.6152V37.8607H42.9362V34.71Z" fill="#E0E0E0"/>
<path d="M51.1023 34.71H47.7812V37.8607H51.1023V34.71Z" fill="#E0E0E0"/>
<path d="M59.4265 34.562H56.1055V37.7127H59.4265V34.562Z" fill="#E0E0E0"/>
<path d="M67.4382 34.71H64.1172V37.8607H67.4382V34.71Z" fill="#E0E0E0"/>
<path d="M75.6062 34.71H72.2852V37.8607H75.6062V34.71Z" fill="#E0E0E0"/>
<path d="M83.78 34.71H80.459V37.8607H83.78V34.71Z" fill="#E0E0E0"/>
<path d="M91.948 34.71H88.627V37.8607H91.948V34.71Z" fill="#EBEBEB"/>
<path d="M42.9362 41.3999H39.6152V44.5506H42.9362V41.3999Z" fill="#EBEBEB"/>
<path d="M51.1023 41.3999H47.7812V44.5506H51.1023V41.3999Z" fill="#E0E0E0"/>
<path d="M59.2702 41.3999H55.9492V44.5506H59.2702V41.3999Z" fill="#EBEBEB"/>
<path d="M67.4382 41.3999H64.1172V44.5506H67.4382V41.3999Z" fill="#E0E0E0"/>
<path d="M75.6062 41.3999H72.2852V44.5506H75.6062V41.3999Z" fill="#E0E0E0"/>
<path d="M83.9284 41.2524H80.6074V44.4031H83.9284V41.2524Z" fill="#E0E0E0"/>
<path d="M91.948 41.3999H88.627V44.5506H91.948V41.3999Z" fill="#E0E0E0"/>
<path d="M42.9362 48.0908H39.6152V51.2415H42.9362V48.0908Z" fill="#E0E0E0"/>
<path d="M51.2585 47.9512H47.9375V51.1019H51.2585V47.9512Z" fill="#E0E0E0"/>
<path d="M59.2702 48.0908H55.9492V51.2415H59.2702V48.0908Z" fill="#E0E0E0"/>
<path d="M67.4382 48.0908H64.1172V51.2415H67.4382V48.0908Z" fill="#EBEBEB"/>
<path d="M75.6062 48.0908H72.2852V51.2415H75.6062V48.0908Z" fill="#E0E0E0"/>
<path d="M83.78 48.0908H80.459V51.2415H83.78V48.0908Z" fill="#E0E0E0"/>
<path d="M91.948 48.0908H88.627V51.2415H91.948V48.0908Z" fill="#E0E0E0"/>
<path d="M42.9362 54.7812H39.6152V57.9319H42.9362V54.7812Z" fill="#E0E0E0"/>
<path d="M51.1023 54.7812H47.7812V57.9319H51.1023V54.7812Z" fill="#E0E0E0"/>
<path d="M59.2702 54.7812H55.9492V57.9319H59.2702V54.7812Z" fill="#E0E0E0"/>
<path d="M67.5925 54.6411H64.2715V57.7918H67.5925V54.6411Z" fill="#E0E0E0"/>
<path d="M75.6062 54.7812H72.2852V57.9319H75.6062V54.7812Z" fill="#E0E0E0"/>
<path d="M83.78 54.7812H80.459V57.9319H83.78V54.7812Z" fill="#EBEBEB"/>
<path d="M91.948 54.7812H88.627V57.9319H91.948V54.7812Z" fill="#E0E0E0"/>
<path d="M42.9362 61.479H39.6152V64.6297H42.9362V61.479Z" fill="#E0E0E0"/>
<path d="M51.1023 61.479H47.7812V64.6297H51.1023V61.479Z" fill="#EBEBEB"/>
<path d="M59.2702 61.479H55.9492V64.6297H59.2702V61.479Z" fill="#E0E0E0"/>
<path d="M67.4382 61.479H64.1172V64.6297H67.4382V61.479Z" fill="#E0E0E0"/>
<path d="M75.6062 61.479H72.2852V64.6297H75.6062V61.479Z" fill="#E0E0E0"/>
<path d="M83.9284 61.3311H80.6074V64.4818H83.9284V61.3311Z" fill="#E0E0E0"/>
<path d="M91.948 61.479H88.627V64.6297H91.948V61.479Z" fill="#E0E0E0"/>
<path d="M385.811 10.6636H330.018V63.5953H385.811V10.6636Z" fill="white"/>
<path d="M385.812 63.6028C385.812 63.6028 385.812 63.5094 385.812 63.3461C385.812 63.1827 385.812 62.926 385.812 62.5681C385.812 61.9146 385.812 60.9578 385.812 59.7208C385.812 57.2158 385.812 53.575 385.763 48.9462C385.763 39.6808 385.706 26.4712 385.665 10.6244L385.853 10.8033H330.093L330.307 10.601C330.307 29.9876 330.307 48.1527 330.307 63.5406L330.126 63.3616L370.511 63.455L381.868 63.5017H384.878H385.648H385.919H384.919H381.942L370.634 63.5483L330.126 63.6339H329.938V63.4628C329.938 48.0749 329.938 29.9098 329.938 10.5621V10.3599H330.151H385.911H386.099V10.531C386.058 26.4245 386.026 39.673 386.001 48.9618C386.001 53.575 386.001 57.208 385.952 59.6975C385.952 60.9266 385.952 61.868 385.952 62.5137C385.952 62.8248 385.952 63.0582 385.952 63.2294C385.952 63.4005 385.812 63.6028 385.812 63.6028Z" fill="#E0E0E0"/>
<path d="M385.573 24.215C385.573 24.3239 373.133 24.4173 357.791 24.4173C342.449 24.4173 330.018 24.3239 330.018 24.215C330.018 24.1061 342.449 24.0205 357.791 24.0205C373.133 24.0205 385.573 24.1061 385.573 24.215Z" fill="#E0E0E0"/>
<path d="M335.446 18.6689C336.32 18.6689 337.029 17.9967 337.029 17.1675C337.029 16.3382 336.32 15.666 335.446 15.666C334.572 15.666 333.863 16.3382 333.863 17.1675C333.863 17.9967 334.572 18.6689 335.446 18.6689Z" fill="#E0E0E0"/>
<path d="M340.268 18.6689C341.142 18.6689 341.851 17.9967 341.851 17.1675C341.851 16.3382 341.142 15.666 340.268 15.666C339.394 15.666 338.686 16.3382 338.686 17.1675C338.686 17.9967 339.394 18.6689 340.268 18.6689Z" fill="#E0E0E0"/>
<path d="M346.673 17.1675C346.673 17.4644 346.58 17.7547 346.406 18.0016C346.232 18.2485 345.985 18.441 345.696 18.5546C345.407 18.6683 345.089 18.698 344.782 18.6401C344.475 18.5821 344.193 18.4391 343.971 18.2292C343.75 18.0192 343.599 17.7517 343.538 17.4604C343.477 17.1691 343.509 16.8673 343.628 16.5929C343.748 16.3185 343.951 16.0841 344.211 15.9191C344.471 15.7541 344.777 15.666 345.09 15.666C345.299 15.665 345.505 15.7031 345.697 15.7782C345.89 15.8533 346.065 15.9639 346.212 16.1035C346.359 16.2431 346.476 16.4091 346.555 16.5917C346.634 16.7743 346.674 16.97 346.673 17.1675Z" fill="#E0E0E0"/>
<path d="M341.318 39.7824C343.822 39.7824 345.852 37.8563 345.852 35.4803C345.852 33.1043 343.822 31.1782 341.318 31.1782C338.813 31.1782 336.783 33.1043 336.783 35.4803C336.783 37.8563 338.813 39.7824 341.318 39.7824Z" fill="#EBEBEB"/>
<path d="M345.852 51.2493C345.852 52.1002 345.586 52.932 345.088 53.6394C344.59 54.3469 343.882 54.8983 343.053 55.2239C342.225 55.5495 341.313 55.6347 340.433 55.4687C339.554 55.3027 338.746 54.893 338.111 54.2914C337.477 53.6897 337.045 52.9231 336.87 52.0886C336.695 51.2541 336.785 50.3891 337.128 49.603C337.472 48.8169 338.053 48.145 338.799 47.6723C339.544 47.1996 340.421 46.9473 341.318 46.9473C342.52 46.9473 343.674 47.4005 344.524 48.2073C345.375 49.0141 345.852 50.1084 345.852 51.2493Z" fill="#EBEBEB"/>
<path d="M377.481 35.13C377.481 35.2389 371.282 35.3323 363.631 35.3323C355.98 35.3323 349.781 35.2389 349.781 35.13C349.781 35.0211 355.98 34.9277 363.631 34.9277C371.282 34.9277 377.481 35.0133 377.481 35.13Z" fill="#E0E0E0"/>
<path d="M359.76 51.1946C356.486 51.4638 353.194 51.4638 349.92 51.1946C353.194 50.9254 356.486 50.9254 359.76 51.1946Z" fill="#E0E0E0"/>
<path d="M377.482 71.647C387.196 71.647 395.071 64.176 395.071 54.96C395.071 45.744 387.196 38.2729 377.482 38.2729C367.767 38.2729 359.893 45.744 359.893 54.96C359.893 64.176 367.767 71.647 377.482 71.647Z" fill="#E0E0E0"/>
<path d="M379.136 48.6274H377.496V61.0124H379.136V48.6274Z" fill="white"/>
<path d="M384.845 54.0425H371.791V55.5984H384.845V54.0425Z" fill="white"/>
<path d="M48.9483 195.224C57.8942 191.632 62.0769 181.84 58.2907 173.353C54.5044 164.866 44.1829 160.898 35.237 164.49C26.2911 168.082 22.1084 177.874 25.8947 186.361C29.6809 194.848 40.0024 198.816 48.9483 195.224Z" fill="#E0E0E0"/>
<path d="M43.7494 173.528H42.1094V185.913H43.7494V173.528Z" fill="white"/>
<path d="M49.4548 178.942H36.4004V180.498H49.4548V178.942Z" fill="white"/>
<path d="M316.809 36.25H70.8984V241.8H316.809V36.25Z" fill="white"/>
<path d="M316.809 161.399H70.8984V196.127H316.809V161.399Z" fill="white"/>
<path d="M316.809 121.669H70.8984V161.407H316.809V121.669Z" fill="#F5F5F5"/>
<path d="M316.809 201.807H70.8984V241.544H316.809V201.807Z" fill="#F5F5F5"/>
<path d="M219.377 134.039C219.377 134.155 190.373 134.249 154.597 134.249C118.82 134.249 89.8164 134.155 89.8164 134.039C89.8164 133.922 118.812 133.836 154.597 133.836C190.381 133.836 219.377 133.93 219.377 134.039Z" fill="#263238"/>
<path d="M144.518 145.102C144.518 145.211 132.218 145.304 116.99 145.304C101.763 145.304 89.4629 145.211 89.4629 145.102C89.4629 144.993 101.763 144.899 116.99 144.899C132.218 144.899 144.518 144.993 144.518 145.102Z" fill="#263238"/>
<path d="M219.377 173.24C219.377 173.349 190.373 173.442 154.597 173.442C118.82 173.442 89.8164 173.349 89.8164 173.24C89.8164 173.131 118.812 173.038 154.597 173.038C190.381 173.038 219.377 173.123 219.377 173.24Z" fill="#263238"/>
<path d="M144.518 184.278C144.518 184.395 132.218 184.481 116.99 184.481C101.763 184.481 89.4629 184.395 89.4629 184.278C89.4629 184.162 101.763 184.076 116.99 184.076C132.218 184.076 144.518 184.185 144.518 184.278Z" fill="#263238"/>
<path d="M219.377 212.433C219.377 212.542 190.373 212.636 154.597 212.636C118.82 212.636 89.8164 212.542 89.8164 212.433C89.8164 212.324 118.812 212.231 154.597 212.231C190.381 212.231 219.377 212.285 219.377 212.433Z" fill="#263238"/>
<path d="M144.518 223.487C144.518 223.604 132.218 223.69 116.99 223.69C101.763 223.69 89.4629 223.604 89.4629 223.487C89.4629 223.371 101.763 223.285 116.99 223.285C132.218 223.285 144.518 223.378 144.518 223.487Z" fill="#263238"/>
<path d="M316.809 35.9937H70.8984V55.6058H316.809V35.9937Z" fill="#E0E0E0"/>
<path d="M316.809 53.7461H70.8984V73.3582H316.809V53.7461Z" fill="#F5F5F5"/>
<path d="M85.6987 45.1813C85.6938 45.6684 85.5371 46.1432 85.2481 46.5458C84.9592 46.9485 84.5511 47.2609 84.0752 47.4437C83.5993 47.6266 83.0771 47.6717 82.5742 47.5732C82.0714 47.4748 81.6106 47.2374 81.2498 46.8908C80.8891 46.5442 80.6446 46.1041 80.5472 45.6258C80.4498 45.1476 80.5039 44.6527 80.7026 44.2036C80.9013 43.7544 81.2357 43.3712 81.6637 43.1022C82.0917 42.8331 82.5941 42.6904 83.1075 42.6919C83.4506 42.6919 83.7902 42.7565 84.1067 42.882C84.4233 43.0074 84.7104 43.1913 84.9514 43.4229C85.1925 43.6545 85.3827 43.9292 85.5109 44.231C85.6392 44.5329 85.703 44.8559 85.6987 45.1813Z" fill="#263238"/>
<path d="M95.228 45.1815C95.2231 45.6696 95.0656 46.1453 94.7756 46.5484C94.4856 46.9515 94.076 47.2639 93.5987 47.446C93.1214 47.6281 92.5979 47.6718 92.0944 47.5714C91.5909 47.4711 91.1302 47.2313 90.7704 46.8824C90.4107 46.5335 90.1682 46.0912 90.0736 45.6114C89.979 45.1317 90.0366 44.6361 90.2391 44.1874C90.4416 43.7387 90.7798 43.3571 91.211 43.091C91.6422 42.8248 92.147 42.686 92.6614 42.6921C93.3494 42.7003 94.0059 42.9669 94.487 43.4336C94.9681 43.9002 95.2346 44.5288 95.228 45.1815Z" fill="#263238"/>
<path d="M104.748 45.1813C104.743 45.6681 104.586 46.1425 104.298 46.545C104.009 46.9475 103.601 47.2599 103.126 47.443C102.651 47.6261 102.129 47.6716 101.626 47.5738C101.123 47.4761 100.663 47.2394 100.302 46.8936C99.9405 46.5478 99.6953 46.1083 99.597 45.6306C99.4987 45.1529 99.5516 44.6582 99.749 44.2089C99.9465 43.7597 100.28 43.3759 100.707 43.1059C101.133 42.836 101.635 42.6919 102.148 42.6919C102.492 42.6919 102.832 42.7564 103.149 42.8818C103.466 43.0072 103.753 43.191 103.995 43.4224C104.237 43.6539 104.428 43.9285 104.557 44.2304C104.686 44.5323 104.751 44.8555 104.748 45.1813Z" fill="#263238"/>
<path d="M316.858 241.847C316.858 240.54 316.809 161.718 316.735 36.0323L316.858 36.1879L71.071 36.2346L71.2186 36.0323C71.2186 109.09 71.2186 178.67 71.2186 241.847L71.0792 241.66L316.883 241.847L71.0792 242.034H70.9316V241.847C70.9316 178.67 70.9316 109.09 70.9316 36.0323V35.8301H71.1038L316.891 35.869H317.014V36.0323C316.899 161.718 316.858 240.501 316.858 241.847Z" fill="#263238"/>
<path d="M303.173 84.9189H244.97C242.357 84.9189 240.238 86.9286 240.238 89.4077V102.143C240.238 104.622 242.357 106.632 244.97 106.632H303.173C305.786 106.632 307.905 104.622 307.905 102.143V89.4077C307.905 86.9286 305.786 84.9189 303.173 84.9189Z" fill="#505050"/>
<path d="M295.211 136.894H259.286C255.278 136.894 252.029 139.976 252.029 143.778V143.786C252.029 147.589 255.278 150.671 259.286 150.671H295.211C299.219 150.671 302.468 147.589 302.468 143.786V143.778C302.468 139.976 299.219 136.894 295.211 136.894Z" fill="#E0E0E0"/>
<path d="M295.202 190.448H259.286C258.333 190.448 257.39 190.27 256.509 189.924C255.629 189.578 254.829 189.071 254.155 188.431C253.481 187.792 252.946 187.033 252.582 186.198C252.217 185.362 252.029 184.467 252.029 183.563C252.029 181.737 252.794 179.986 254.155 178.695C255.516 177.404 257.362 176.678 259.286 176.678H295.202C296.155 176.678 297.099 176.856 297.98 177.202C298.86 177.548 299.66 178.055 300.334 178.695C301.008 179.334 301.542 180.093 301.907 180.928C302.272 181.764 302.459 182.659 302.459 183.563C302.459 184.467 302.272 185.362 301.907 186.198C301.542 187.033 301.008 187.792 300.334 188.431C299.66 189.071 298.86 189.578 297.98 189.924C297.099 190.27 296.155 190.448 295.202 190.448Z" fill="#EBEBEB"/>
<path d="M295.211 215.646H259.286C255.278 215.646 252.029 218.728 252.029 222.531V222.539C252.029 226.341 255.278 229.423 259.286 229.423H295.211C299.219 229.423 302.468 226.341 302.468 222.539V222.531C302.468 218.728 299.219 215.646 295.211 215.646Z" fill="#E0E0E0"/>
<path d="M263.852 96.4095H261.738V98.3931H260.757V96.4095H258.631V95.5353H260.757V93.5405H261.738V95.5353H263.852V96.4095Z" fill="white"/>
<path d="M267.705 96.0586C267.705 95.492 267.835 94.9837 268.096 94.5337C268.363 94.0837 268.721 93.7337 269.171 93.4838C269.627 93.2282 270.124 93.1004 270.663 93.1004C271.28 93.1004 271.827 93.2532 272.305 93.5587C272.788 93.8587 273.138 94.2865 273.355 94.842H272.213C272.063 94.5365 271.855 94.3087 271.588 94.1587C271.321 94.0087 271.013 93.9337 270.663 93.9337C270.28 93.9337 269.938 94.0198 269.638 94.192C269.338 94.3643 269.102 94.6115 268.93 94.9337C268.763 95.2559 268.68 95.6309 268.68 96.0586C268.68 96.4864 268.763 96.8614 268.93 97.1836C269.102 97.5058 269.338 97.7557 269.638 97.9335C269.938 98.1057 270.28 98.1918 270.663 98.1918C271.013 98.1918 271.321 98.1168 271.588 97.9668C271.855 97.8169 272.063 97.5891 272.213 97.2836H273.355C273.138 97.8391 272.788 98.2668 272.305 98.5668C271.827 98.8668 271.28 99.0168 270.663 99.0168C270.119 99.0168 269.621 98.8918 269.171 98.6418C268.721 98.3863 268.363 98.0335 268.096 97.5835C267.835 97.1336 267.705 96.6253 267.705 96.0586ZM275.268 95.042C275.406 94.8087 275.59 94.6281 275.818 94.5004C276.051 94.367 276.326 94.3004 276.643 94.3004V95.2837H276.401C276.029 95.2837 275.745 95.3781 275.551 95.567C275.362 95.7559 275.268 96.0836 275.268 96.5503V98.9668H274.318V94.3754H275.268V95.042ZM281.575 96.5586C281.575 96.7308 281.564 96.8864 281.542 97.0252H278.034C278.061 97.3919 278.197 97.6863 278.442 97.9085C278.686 98.1307 278.986 98.2418 279.342 98.2418C279.853 98.2418 280.214 98.028 280.425 97.6002H281.45C281.311 98.0224 281.058 98.3696 280.692 98.6418C280.331 98.9085 279.881 99.0418 279.342 99.0418C278.903 99.0418 278.509 98.9446 278.159 98.7501C277.814 98.5502 277.542 98.2724 277.342 97.9169C277.147 97.5558 277.05 97.1391 277.05 96.6669C277.05 96.1947 277.145 95.7809 277.334 95.4253C277.528 95.0642 277.797 94.7865 278.142 94.592C278.492 94.3976 278.892 94.3004 279.342 94.3004C279.775 94.3004 280.161 94.3948 280.5 94.5837C280.839 94.7726 281.103 95.0392 281.292 95.3837C281.481 95.7225 281.575 96.1142 281.575 96.5586ZM280.583 96.2586C280.578 95.9086 280.453 95.6281 280.208 95.417C279.964 95.2059 279.661 95.1003 279.3 95.1003C278.972 95.1003 278.692 95.2059 278.459 95.417C278.225 95.6225 278.086 95.9031 278.042 96.2586H280.583ZM282.044 96.6503C282.044 96.1892 282.139 95.7809 282.328 95.4253C282.522 95.0698 282.783 94.7948 283.111 94.6004C283.444 94.4004 283.811 94.3004 284.211 94.3004C284.572 94.3004 284.886 94.3726 285.153 94.517C285.425 94.6559 285.641 94.8309 285.803 95.042V94.3754H286.761V98.9668H285.803V98.2835C285.641 98.5002 285.422 98.6807 285.144 98.8251C284.866 98.9696 284.55 99.0418 284.194 99.0418C283.8 99.0418 283.439 98.9418 283.111 98.7418C282.783 98.5363 282.522 98.2529 282.328 97.8919C282.139 97.5252 282.044 97.1113 282.044 96.6503ZM285.803 96.6669C285.803 96.3503 285.736 96.0753 285.603 95.842C285.475 95.6086 285.305 95.4309 285.094 95.3087C284.883 95.1864 284.655 95.1253 284.411 95.1253C284.167 95.1253 283.939 95.1864 283.728 95.3087C283.517 95.4253 283.344 95.6003 283.211 95.8336C283.083 96.0614 283.019 96.3336 283.019 96.6503C283.019 96.9669 283.083 97.2447 283.211 97.4835C283.344 97.7224 283.517 97.9057 283.728 98.0335C283.944 98.1557 284.172 98.2168 284.411 98.2168C284.655 98.2168 284.883 98.1557 285.094 98.0335C285.305 97.9113 285.475 97.7335 285.603 97.5002C285.736 97.2613 285.803 96.9836 285.803 96.6669ZM288.968 95.1503V97.6919C288.968 97.8641 289.007 97.9891 289.085 98.0668C289.168 98.1391 289.307 98.1752 289.501 98.1752H290.085V98.9668H289.335C288.907 98.9668 288.579 98.8668 288.351 98.6668C288.124 98.4668 288.01 98.1418 288.01 97.6919V95.1503H287.468V94.3754H288.01V93.2338H288.968V94.3754H290.085V95.1503H288.968Z" fill="white"/>
<path d="M82.3641 98.0561C82.3641 97.3869 82.5182 96.7867 82.8266 96.2553C83.1414 95.724 83.5646 95.3107 84.0959 95.0155C84.6338 94.7137 85.221 94.5629 85.8573 94.5629C86.5854 94.5629 87.2316 94.7433 87.7958 95.1041C88.3665 95.4583 88.7798 95.9634 89.0356 96.6194H87.6875C87.5104 96.2586 87.2644 95.9897 86.9495 95.8125C86.6346 95.6354 86.2706 95.5469 85.8573 95.5469C85.4046 95.5469 85.0012 95.6485 84.647 95.8519C84.2927 96.0553 84.0139 96.3472 83.8106 96.7277C83.6138 97.1081 83.5154 97.5509 83.5154 98.0561C83.5154 98.5612 83.6138 99.004 83.8106 99.3845C84.0139 99.765 84.2927 100.06 84.647 100.27C85.0012 100.473 85.4046 100.575 85.8573 100.575C86.2706 100.575 86.6346 100.487 86.9495 100.309C87.2644 100.132 87.5104 99.8634 87.6875 99.5026H89.0356C88.7798 100.159 88.3665 100.664 87.7958 101.018C87.2316 101.372 86.5854 101.549 85.8573 101.549C85.2144 101.549 84.6273 101.402 84.0959 101.106C83.5646 100.805 83.1414 100.388 82.8266 99.8568C82.5182 99.3254 82.3641 98.7252 82.3641 98.0561ZM91.3671 96.8556C91.5311 96.5801 91.7476 96.3669 92.0166 96.216C92.2921 96.0585 92.6168 95.9798 92.9907 95.9798V97.1409H92.7054C92.2658 97.1409 91.9313 97.2525 91.7017 97.4755C91.4786 97.6985 91.3671 98.0856 91.3671 98.6366V101.49H90.2453V96.0684H91.3671V96.8556ZM98.8878 98.6465C98.8878 98.8498 98.8746 99.0335 98.8484 99.1975H94.7057C94.7385 99.6305 94.8993 99.9782 95.1879 100.241C95.4765 100.503 95.8308 100.634 96.2506 100.634C96.8542 100.634 97.2806 100.382 97.5298 99.8765H98.7402C98.5762 100.375 98.2777 100.785 97.8447 101.106C97.4183 101.421 96.887 101.579 96.2506 101.579C95.7324 101.579 95.2666 101.464 94.8533 101.234C94.4466 100.998 94.1252 100.67 93.889 100.25C93.6594 99.824 93.5446 99.332 93.5446 98.7744C93.5446 98.2168 93.6561 97.7281 93.8792 97.3082C94.1088 96.8818 94.4269 96.5538 94.8337 96.3242C95.2469 96.0946 95.7193 95.9798 96.2506 95.9798C96.7623 95.9798 97.2182 96.0913 97.6184 96.3144C98.0186 96.5374 98.3302 96.8523 98.5532 97.259C98.7762 97.6592 98.8878 98.1217 98.8878 98.6465ZM97.7168 98.2922C97.7102 97.8789 97.5626 97.5477 97.274 97.2984C96.9854 97.0491 96.6278 96.9245 96.2014 96.9245C95.8144 96.9245 95.4831 97.0491 95.2076 97.2984C94.9321 97.5411 94.7681 97.8724 94.7156 98.2922H97.7168ZM99.5145 98.7547C99.5145 98.2102 99.626 97.7281 99.849 97.3082C100.079 96.8884 100.387 96.5637 100.774 96.3341C101.168 96.0979 101.601 95.9798 102.073 95.9798C102.499 95.9798 102.87 96.0651 103.185 96.2357C103.506 96.3997 103.762 96.6063 103.952 96.8556V96.0684H105.084V101.49H103.952V100.683C103.762 100.939 103.503 101.152 103.175 101.323C102.847 101.494 102.473 101.579 102.053 101.579C101.587 101.579 101.161 101.461 100.774 101.225C100.387 100.982 100.079 100.647 99.849 100.221C99.626 99.7879 99.5145 99.2992 99.5145 98.7547ZM103.952 98.7744C103.952 98.4005 103.874 98.0757 103.716 97.8002C103.565 97.5247 103.365 97.3148 103.116 97.1705C102.867 97.0261 102.598 96.954 102.309 96.954C102.02 96.954 101.751 97.0261 101.502 97.1705C101.253 97.3082 101.05 97.5149 100.892 97.7904C100.741 98.0593 100.666 98.3808 100.666 98.7547C100.666 99.1286 100.741 99.4566 100.892 99.7387C101.05 100.021 101.253 100.237 101.502 100.388C101.758 100.532 102.027 100.605 102.309 100.605C102.598 100.605 102.867 100.532 103.116 100.388C103.365 100.244 103.565 100.034 103.716 99.7584C103.874 99.4763 103.952 99.1483 103.952 98.7744ZM107.763 96.9835V99.9847C107.763 100.188 107.809 100.336 107.9 100.428C107.999 100.513 108.163 100.555 108.392 100.555H109.081V101.49H108.196C107.691 101.49 107.304 101.372 107.035 101.136C106.766 100.9 106.631 100.516 106.631 99.9847V96.9835H105.992V96.0684H106.631V94.7203H107.763V96.0684H109.081V96.9835H107.763ZM114.981 98.6465C114.981 98.8498 114.968 99.0335 114.942 99.1975H110.799C110.832 99.6305 110.993 99.9782 111.281 100.241C111.57 100.503 111.924 100.634 112.344 100.634C112.948 100.634 113.374 100.382 113.623 99.8765H114.834C114.67 100.375 114.371 100.785 113.938 101.106C113.512 101.421 112.98 101.579 112.344 101.579C111.826 101.579 111.36 101.464 110.947 101.234C110.54 100.998 110.219 100.67 109.982 100.25C109.753 99.824 109.638 99.332 109.638 98.7744C109.638 98.2168 109.749 97.7281 109.973 97.3082C110.202 96.8818 110.52 96.5538 110.927 96.3242C111.34 96.0946 111.813 95.9798 112.344 95.9798C112.856 95.9798 113.312 96.0913 113.712 96.3144C114.112 96.5374 114.424 96.8523 114.647 97.259C114.87 97.6592 114.981 98.1217 114.981 98.6465ZM113.81 98.2922C113.804 97.8789 113.656 97.5477 113.367 97.2984C113.079 97.0491 112.721 96.9245 112.295 96.9245C111.908 96.9245 111.576 97.0491 111.301 97.2984C111.025 97.5411 110.861 97.8724 110.809 98.2922H113.81ZM122.558 100.093H119.694L119.202 101.49H118.031L120.481 94.6416H121.78L124.23 101.49H123.05L122.558 100.093ZM122.243 99.1778L121.131 95.9995L120.009 99.1778H122.243ZM126.314 96.8654C126.504 96.6161 126.763 96.4062 127.091 96.2357C127.419 96.0651 127.79 95.9798 128.203 95.9798C128.676 95.9798 129.105 96.0979 129.492 96.3341C129.886 96.5637 130.194 96.8884 130.417 97.3082C130.64 97.7281 130.752 98.2102 130.752 98.7547C130.752 99.2992 130.64 99.7879 130.417 100.221C130.194 100.647 129.886 100.982 129.492 101.225C129.105 101.461 128.676 101.579 128.203 101.579C127.79 101.579 127.423 101.497 127.101 101.333C126.78 101.162 126.517 100.952 126.314 100.703V104.068H125.192V96.0684H126.314V96.8654ZM129.611 98.7547C129.611 98.3808 129.532 98.0593 129.374 97.7904C129.223 97.5149 129.02 97.3082 128.764 97.1705C128.515 97.0261 128.246 96.954 127.957 96.954C127.675 96.954 127.406 97.0261 127.151 97.1705C126.901 97.3148 126.698 97.5247 126.54 97.8002C126.39 98.0757 126.314 98.4005 126.314 98.7744C126.314 99.1483 126.39 99.4763 126.54 99.7584C126.698 100.034 126.901 100.244 127.151 100.388C127.406 100.532 127.675 100.605 127.957 100.605C128.246 100.605 128.515 100.532 128.764 100.388C129.02 100.237 129.223 100.021 129.374 99.7387C129.532 99.4566 129.611 99.1286 129.611 98.7547ZM132.88 96.8654C133.07 96.6161 133.329 96.4062 133.657 96.2357C133.985 96.0651 134.356 95.9798 134.769 95.9798C135.241 95.9798 135.671 96.0979 136.058 96.3341C136.452 96.5637 136.76 96.8884 136.983 97.3082C137.206 97.7281 137.318 98.2102 137.318 98.7547C137.318 99.2992 137.206 99.7879 136.983 100.221C136.76 100.647 136.452 100.982 136.058 101.225C135.671 101.461 135.241 101.579 134.769 101.579C134.356 101.579 133.988 101.497 133.667 101.333C133.346 101.162 133.083 100.952 132.88 100.703V104.068H131.758V96.0684H132.88V96.8654ZM136.176 98.7547C136.176 98.3808 136.097 98.0593 135.94 97.7904C135.789 97.5149 135.586 97.3082 135.33 97.1705C135.081 97.0261 134.812 96.954 134.523 96.954C134.241 96.954 133.972 97.0261 133.716 97.1705C133.467 97.3148 133.264 97.5247 133.106 97.8002C132.955 98.0757 132.88 98.4005 132.88 98.7744C132.88 99.1483 132.955 99.4763 133.106 99.7584C133.264 100.034 133.467 100.244 133.716 100.388C133.972 100.532 134.241 100.605 134.523 100.605C134.812 100.605 135.081 100.532 135.33 100.388C135.586 100.237 135.789 100.021 135.94 99.7387C136.097 99.4566 136.176 99.1286 136.176 98.7547ZM139.445 94.2086V101.49H138.324V94.2086H139.445ZM141.386 95.3501C141.182 95.3501 141.012 95.2812 140.874 95.1434C140.736 95.0057 140.667 94.8351 140.667 94.6317C140.667 94.4284 140.736 94.2578 140.874 94.1201C141.012 93.9823 141.182 93.9134 141.386 93.9134C141.582 93.9134 141.75 93.9823 141.887 94.1201C142.025 94.2578 142.094 94.4284 142.094 94.6317C142.094 94.8351 142.025 95.0057 141.887 95.1434C141.75 95.2812 141.582 95.3501 141.386 95.3501ZM141.937 96.0684V101.49H140.815V96.0684H141.937ZM142.932 98.7744C142.932 98.2168 143.044 97.7281 143.267 97.3082C143.496 96.8818 143.811 96.5538 144.211 96.3242C144.612 96.0946 145.071 95.9798 145.589 95.9798C146.245 95.9798 146.786 96.1373 147.213 96.4521C147.646 96.7605 147.937 97.2033 148.088 97.7805H146.878C146.78 97.5116 146.622 97.3017 146.406 97.1508C146.189 96.9999 145.917 96.9245 145.589 96.9245C145.13 96.9245 144.762 97.0885 144.487 97.4165C144.218 97.7379 144.083 98.1905 144.083 98.7744C144.083 99.3582 144.218 99.8142 144.487 100.142C144.762 100.47 145.13 100.634 145.589 100.634C146.238 100.634 146.668 100.349 146.878 99.7781H148.088C147.931 100.329 147.636 100.769 147.203 101.097C146.77 101.418 146.232 101.579 145.589 101.579C145.071 101.579 144.612 101.464 144.211 101.234C143.811 100.998 143.496 100.67 143.267 100.25C143.044 99.824 142.932 99.332 142.932 98.7744ZM148.729 98.7547C148.729 98.2102 148.841 97.7281 149.064 97.3082C149.293 96.8884 149.602 96.5637 149.989 96.3341C150.382 96.0979 150.815 95.9798 151.287 95.9798C151.714 95.9798 152.084 96.0651 152.399 96.2357C152.721 96.3997 152.977 96.6063 153.167 96.8556V96.0684H154.298V101.49H153.167V100.683C152.977 100.939 152.718 101.152 152.39 101.323C152.062 101.494 151.688 101.579 151.268 101.579C150.802 101.579 150.376 101.461 149.989 101.225C149.602 100.982 149.293 100.647 149.064 100.221C148.841 99.7879 148.729 99.2992 148.729 98.7547ZM153.167 98.7744C153.167 98.4005 153.088 98.0757 152.931 97.8002C152.78 97.5247 152.58 97.3148 152.33 97.1705C152.081 97.0261 151.812 96.954 151.524 96.954C151.235 96.954 150.966 97.0261 150.717 97.1705C150.467 97.3082 150.264 97.5149 150.107 97.7904C149.956 98.0593 149.88 98.3808 149.88 98.7547C149.88 99.1286 149.956 99.4566 150.107 99.7387C150.264 100.021 150.467 100.237 150.717 100.388C150.973 100.532 151.242 100.605 151.524 100.605C151.812 100.605 152.081 100.532 152.33 100.388C152.58 100.244 152.78 100.034 152.931 99.7584C153.088 99.4763 153.167 99.1483 153.167 98.7744ZM156.977 96.9835V99.9847C156.977 100.188 157.023 100.336 157.115 100.428C157.213 100.513 157.377 100.555 157.607 100.555H158.296V101.49H157.41C156.905 101.49 156.518 101.372 156.249 101.136C155.98 100.9 155.846 100.516 155.846 99.9847V96.9835H155.206V96.0684H155.846V94.7203H156.977V96.0684H158.296V96.9835H156.977ZM159.797 95.3501C159.594 95.3501 159.423 95.2812 159.286 95.1434C159.148 95.0057 159.079 94.8351 159.079 94.6317C159.079 94.4284 159.148 94.2578 159.286 94.1201C159.423 93.9823 159.594 93.9134 159.797 93.9134C159.994 93.9134 160.161 93.9823 160.299 94.1201C160.437 94.2578 160.506 94.4284 160.506 94.6317C160.506 94.8351 160.437 95.0057 160.299 95.1434C160.161 95.2812 159.994 95.3501 159.797 95.3501ZM160.348 96.0684V101.49H159.226V96.0684H160.348ZM164.069 101.579C163.558 101.579 163.095 101.464 162.682 101.234C162.269 100.998 161.944 100.67 161.708 100.25C161.472 99.824 161.354 99.332 161.354 98.7744C161.354 98.2233 161.475 97.7346 161.718 97.3082C161.96 96.8818 162.292 96.5538 162.712 96.3242C163.131 96.0946 163.6 95.9798 164.119 95.9798C164.637 95.9798 165.106 96.0946 165.526 96.3242C165.946 96.5538 166.277 96.8818 166.52 97.3082C166.762 97.7346 166.884 98.2233 166.884 98.7744C166.884 99.3254 166.759 99.8142 166.51 100.241C166.261 100.667 165.919 100.998 165.486 101.234C165.06 101.464 164.588 101.579 164.069 101.579ZM164.069 100.605C164.358 100.605 164.627 100.536 164.876 100.398C165.132 100.26 165.339 100.054 165.496 99.7781C165.654 99.5026 165.732 99.168 165.732 98.7744C165.732 98.3808 165.657 98.0495 165.506 97.7805C165.355 97.505 165.155 97.2984 164.906 97.1606C164.657 97.0229 164.388 96.954 164.099 96.954C163.81 96.954 163.541 97.0229 163.292 97.1606C163.049 97.2984 162.856 97.505 162.712 97.7805C162.567 98.0495 162.495 98.3808 162.495 98.7744C162.495 99.3582 162.643 99.8109 162.938 100.132C163.24 100.447 163.617 100.605 164.069 100.605ZM170.625 95.9798C171.051 95.9798 171.432 96.0684 171.766 96.2455C172.107 96.4226 172.373 96.685 172.563 97.0327C172.754 97.3804 172.849 97.8002 172.849 98.2922V101.49H171.737V98.4595C171.737 97.9741 171.615 97.6034 171.373 97.3476C171.13 97.0852 170.799 96.954 170.379 96.954C169.959 96.954 169.624 97.0852 169.375 97.3476C169.132 97.6034 169.011 97.9741 169.011 98.4595V101.49H167.889V96.0684H169.011V96.6883C169.195 96.4653 169.428 96.2914 169.71 96.1668C169.998 96.0421 170.303 95.9798 170.625 95.9798Z" fill="#505050"/>
</g>
<defs>
<clipPath id="clip0_354_21216">
<rect width="410" height="255" fill="white" transform="translate(0 0.789551)"/>
</clipPath>
</defs>
</svg>
