<svg xmlns="http://www.w3.org/2000/svg" width="16" height="20" viewBox="0 0 16 20" fill="none">
  <path d="M11.334 14.1665L5.50065 14.1665" stroke="#1D293D" stroke-width="1.5" stroke-linecap="round" stroke-linejoin="round"/>
  <path d="M11.334 10.8335L8.83398 10.8335" stroke="#1D293D" stroke-width="1.5" stroke-linecap="round" stroke-linejoin="round"/>
  <path d="M15.084 11.6668C15.084 14.8095 15.084 16.3809 14.0467 17.3572C13.0093 18.3335 11.3398 18.3335 8.00065 18.3335H7.35671C4.63904 18.3335 3.2802 18.3335 2.33654 17.6686C2.06617 17.4781 1.82613 17.2522 1.62373 16.9978C0.917318 16.1096 0.917317 14.8307 0.917317 12.2729V10.1517C0.917317 7.68237 0.917317 6.44771 1.3081 5.46162C1.93633 3.87635 3.26493 2.6259 4.94928 2.03462C5.99701 1.66683 7.30883 1.66683 9.93247 1.66683C11.4317 1.66683 12.1813 1.66683 12.78 1.877C13.7425 2.21487 14.5017 2.92941 14.8607 3.83528C15.084 4.39876 15.084 5.10428 15.084 6.51531V11.6668Z" stroke="#1D293D" stroke-width="1.5" stroke-linejoin="round"/>
  <path d="M0.916667 10C0.916667 8.46588 2.16032 7.22222 3.69444 7.22222C4.24926 7.22222 4.90336 7.31944 5.4428 7.1749C5.9221 7.04647 6.29647 6.6721 6.4249 6.1928C6.56944 5.65336 6.47222 4.99926 6.47222 4.44444C6.47222 2.91032 7.71588 1.66667 9.25 1.66667" stroke="#1D293D" stroke-width="1.5" stroke-linecap="round" stroke-linejoin="round"/>
</svg>