<svg xmlns="http://www.w3.org/2000/svg" width="13" height="14" viewBox="0 0 13 14" fill="none">
  <path d="M4.33333 8.4165C4.17986 8.4165 4.05131 8.3645 3.94767 8.2605C3.84403 8.1565 3.79203 8.02795 3.79167 7.87484C3.79131 7.72173 3.84331 7.59317 3.94767 7.48917C4.05203 7.38517 4.18058 7.33317 4.33333 7.33317C4.48608 7.33317 4.61482 7.38517 4.71954 7.48917C4.82426 7.59317 4.87608 7.72173 4.875 7.87484C4.87392 8.02795 4.82192 8.15668 4.719 8.26105C4.61608 8.36541 4.48753 8.41723 4.33333 8.4165ZM6.5 8.4165C6.34653 8.4165 6.21797 8.3645 6.11433 8.2605C6.01069 8.1565 5.95869 8.02795 5.95833 7.87484C5.95797 7.72173 6.00997 7.59317 6.11433 7.48917C6.21869 7.38517 6.34725 7.33317 6.5 7.33317C6.65275 7.33317 6.78149 7.38517 6.88621 7.48917C6.99093 7.59317 7.04275 7.72173 7.04167 7.87484C7.04058 8.02795 6.98858 8.15668 6.88567 8.26105C6.78275 8.36541 6.65419 8.41723 6.5 8.4165ZM8.66667 8.4165C8.51319 8.4165 8.38464 8.3645 8.281 8.2605C8.17736 8.1565 8.12536 8.02795 8.125 7.87484C8.12464 7.72173 8.17664 7.59317 8.281 7.48917C8.38536 7.38517 8.51392 7.33317 8.66667 7.33317C8.81942 7.33317 8.94815 7.38517 9.05288 7.48917C9.1576 7.59317 9.20942 7.72173 9.20833 7.87484C9.20725 8.02795 9.15525 8.15668 9.05233 8.26105C8.94942 8.36541 8.82086 8.41723 8.66667 8.4165ZM2.70833 12.7498C2.41042 12.7498 2.15547 12.6439 1.9435 12.4319C1.73153 12.2199 1.62536 11.9648 1.625 11.6665V4.08317C1.625 3.78525 1.73117 3.53031 1.9435 3.31834C2.15583 3.10636 2.41078 3.0002 2.70833 2.99984H3.25V1.9165H4.33333V2.99984H8.66667V1.9165H9.75V2.99984H10.2917C10.5896 2.99984 10.8447 3.106 11.057 3.31834C11.2694 3.53067 11.3754 3.78561 11.375 4.08317V11.6665C11.375 11.9644 11.269 12.2195 11.057 12.4319C10.8451 12.6442 10.5899 12.7502 10.2917 12.7498H2.70833ZM2.70833 11.6665H10.2917V6.24984H2.70833V11.6665ZM2.70833 5.1665H10.2917V4.08317H2.70833V5.1665Z" fill="#6F6F6F"/>
</svg>