<svg xmlns="http://www.w3.org/2000/svg" width="20" height="16" viewBox="0 0 20 16" fill="none">
  <path d="M17.3117 13C17.9361 13 18.4328 12.6071 18.8787 12.0576C19.7916 10.9329 18.2928 10.034 17.7211 9.59383C17.14 9.14635 16.4912 8.89285 15.8333 8.83333M15 7.16667C16.1506 7.16667 17.0833 6.23393 17.0833 5.08333C17.0833 3.93274 16.1506 3 15 3" stroke="#1D293D" stroke-width="1.5" stroke-linecap="round"/>
  <path d="M2.68895 13C2.06453 13 1.56787 12.6071 1.12194 12.0576C0.209058 10.9329 1.70788 10.034 2.27952 9.59383C2.86063 9.14635 3.50947 8.89285 4.16732 8.83333M4.58398 7.16667C3.43339 7.16667 2.50065 6.23393 2.50065 5.08333C2.50065 3.93274 3.43339 3 4.58398 3" stroke="#1D293D" stroke-width="1.5" stroke-linecap="round"/>
  <path d="M6.73715 10.5925C5.88567 11.119 3.65314 12.1941 5.0129 13.5394C5.67713 14.1965 6.41692 14.6665 7.34701 14.6665H12.6543C13.5844 14.6665 14.3242 14.1965 14.9884 13.5394C16.3482 12.1941 14.1156 11.119 13.2641 10.5925C11.2674 9.35784 8.73387 9.35784 6.73715 10.5925Z" stroke="#1D293D" stroke-width="1.5" stroke-linecap="round" stroke-linejoin="round"/>
  <path d="M12.9173 4.25016C12.9173 5.86099 11.6115 7.16683 10.0007 7.16683C8.38982 7.16683 7.08398 5.86099 7.08398 4.25016C7.08398 2.63933 8.38982 1.3335 10.0007 1.3335C11.6115 1.3335 12.9173 2.63933 12.9173 4.25016Z" stroke="#1D293D" stroke-width="1.5"/>
</svg>