<svg xmlns="http://www.w3.org/2000/svg" width="16" height="16" viewBox="0 0 16 16" fill="none">
  <path d="M6 10C6 8.11438 6 7.17157 6.58579 6.58579C7.17157 6 8.11438 6 10 6L10.6667 6C12.5523 6 13.4951 6 14.0809 6.58579C14.6667 7.17157 14.6667 8.11438 14.6667 10V10.6667C14.6667 12.5523 14.6667 13.4951 14.0809 14.0809C13.4951 14.6667 12.5523 14.6667 10.6667 14.6667H10C8.11438 14.6667 7.17157 14.6667 6.58579 14.0809C6 13.4951 6 12.5523 6 10.6667L6 10Z" stroke="#1D293D" stroke-linecap="round" stroke-linejoin="round"/>
  <path d="M11.3339 5.99967C11.3323 4.02828 11.3025 3.00715 10.7287 2.30796C10.6179 2.17294 10.4941 2.04913 10.359 1.93831C9.62147 1.33301 8.52564 1.33301 6.33399 1.33301C4.14233 1.33301 3.0465 1.33301 2.30894 1.93831C2.17391 2.04912 2.0501 2.17293 1.93929 2.30796C1.33398 3.04553 1.33398 4.14135 1.33398 6.33301C1.33398 8.52466 1.33398 9.62049 1.93929 10.3581C2.0501 10.4931 2.17391 10.6169 2.30894 10.7277C3.00812 11.3015 4.02926 11.3314 6.00065 11.3329" stroke="#1D293D" stroke-linecap="round" stroke-linejoin="round"/>
</svg>