<svg xmlns="http://www.w3.org/2000/svg" width="15" height="14" viewBox="0 0 15 14" fill="none">
  <g clip-path="url(#clip0_354_16308)">
    <path d="M9.08398 1.4585V2.3335C9.08398 3.15833 9.08398 3.57075 9.34065 3.82683C9.59615 4.0835 10.0086 4.0835 10.834 4.0835H11.709" stroke="#62748E" stroke-width="0.95" stroke-linecap="round" stroke-linejoin="round"/>
    <path d="M5.0013 6.41748H9.66797M5.0013 8.16748H9.66797M5.0013 9.91748H7.4338M2.66797 9.33415V4.66748C2.66797 3.01781 2.66797 2.1924 3.18072 1.68023C3.69289 1.16748 4.5183 1.16748 6.16797 1.16748H8.60164C8.83964 1.16748 8.95922 1.16748 9.06655 1.21181C9.1733 1.25615 9.25789 1.34015 9.42647 1.50931L11.6595 3.74231C11.8286 3.91148 11.9126 3.99548 11.957 4.10281C12.0013 4.20956 12.0013 4.32915 12.0013 4.56715V9.33415C12.0013 10.9838 12.0013 11.8092 11.4886 12.3214C10.9764 12.8341 10.151 12.8341 8.5013 12.8341H6.16797C4.5183 12.8341 3.69289 12.8341 3.18072 12.3214C2.66797 11.8092 2.66797 10.9838 2.66797 9.33415Z" stroke="#62748E" stroke-width="0.95" stroke-linecap="round" stroke-linejoin="round"/>
  </g>
  <defs>
    <clipPath id="clip0_354_16308">
      <rect width="14" height="14" fill="white" transform="translate(0.333984 0.00146484)"/>
    </clipPath>
  </defs>
</svg>