<svg xmlns="http://www.w3.org/2000/svg" width="11" height="10" viewBox="0 0 11 10" fill="none">
  <path d="M0.917969 2.08252L4.08644 3.8778C5.25453 4.53965 5.74807 4.53965 6.91617 3.8778L10.0846 2.08252" stroke="#9A9A9A" stroke-width="1.03125" stroke-linejoin="round"/>
  <path d="M0.925195 5.50917C0.955158 6.91421 0.97014 7.61673 1.48857 8.13713C2.00701 8.65754 2.72854 8.67567 4.1716 8.71192C5.06099 8.73427 5.94162 8.73427 6.83101 8.71192C8.27407 8.67567 8.9956 8.65754 9.51403 8.13713C10.0325 7.61673 10.0474 6.91421 10.0774 5.50917C10.087 5.0574 10.087 4.6083 10.0774 4.15653C10.0474 2.75149 10.0325 2.04897 9.51403 1.52857C8.9956 1.00816 8.27407 0.99003 6.83101 0.953772C5.94162 0.931426 5.06098 0.931425 4.1716 0.953769C2.72854 0.990024 2.00701 1.00815 1.48857 1.52856C0.970138 2.04896 0.955156 2.75148 0.925194 4.15652C0.91556 4.60829 0.91556 5.0574 0.925195 5.50917Z" stroke="#9A9A9A" stroke-width="1.03125" stroke-linejoin="round"/>
</svg>