<svg width="25" height="25" viewBox="0 0 25 25" fill="none" xmlns="http://www.w3.org/2000/svg">
<g opacity="0.3">
<path d="M12.2637 9.03369C11.468 9.03369 10.705 9.34976 10.1424 9.91237C9.57974 10.475 9.26367 11.238 9.26367 12.0337C9.26367 12.8293 9.57974 13.5924 10.1424 14.155C10.705 14.7176 11.468 15.0337 12.2637 15.0337C13.0593 15.0337 13.8224 14.7176 14.385 14.155C14.9476 13.5924 15.2637 12.8293 15.2637 12.0337C15.2637 11.238 14.9476 10.475 14.385 9.91237C13.8224 9.34976 13.0593 9.03369 12.2637 9.03369ZM12.2637 17.0337C10.9376 17.0337 9.66582 16.5069 8.72814 15.5692C7.79046 14.6315 7.26367 13.3598 7.26367 12.0337C7.26367 10.7076 7.79046 9.43584 8.72814 8.49816C9.66582 7.56048 10.9376 7.03369 12.2637 7.03369C13.5898 7.03369 14.8615 7.56048 15.7992 8.49816C16.7369 9.43584 17.2637 10.7076 17.2637 12.0337C17.2637 13.3598 16.7369 14.6315 15.7992 15.5692C14.8615 16.5069 13.5898 17.0337 12.2637 17.0337ZM12.2637 4.53369C7.26367 4.53369 2.99367 7.64369 1.26367 12.0337C2.99367 16.4237 7.26367 19.5337 12.2637 19.5337C17.2637 19.5337 21.5337 16.4237 23.2637 12.0337C21.5337 7.64369 17.2637 4.53369 12.2637 4.53369Z" fill="black"/>
</g>
</svg>
