<svg xmlns="http://www.w3.org/2000/svg" width="23" height="24" viewBox="0 0 23 24" fill="none">
  <g clip-path="url(#clip0_354_16317)">
    <path d="M17.4843 0.80127H5.58408C2.68453 0.80127 0.333984 3.15182 0.333984 6.05136V17.9516C0.333984 20.8511 2.68453 23.2017 5.58408 23.2017H17.4843C20.3838 23.2017 22.7344 20.8511 22.7344 17.9516V6.05136C22.7344 3.15182 20.3838 0.80127 17.4843 0.80127Z" fill="white"/>
    <path d="M17.4843 0.80127H5.58408C2.68453 0.80127 0.333984 3.15182 0.333984 6.05136V17.9516C0.333984 20.8511 2.68453 23.2017 5.58408 23.2017H17.4843C20.3838 23.2017 22.7344 20.8511 22.7344 17.9516V6.05136C22.7344 3.15182 20.3838 0.80127 17.4843 0.80127Z" fill="#0A66C2"/>
    <path d="M16.496 19.8482H19.0572C19.15 19.8482 19.239 19.8113 19.3046 19.7457C19.3703 19.6801 19.4071 19.5911 19.4072 19.4983L19.4085 14.087C19.4085 11.2587 18.799 9.08472 15.4938 9.08472C14.2374 9.038 13.0525 9.68569 12.4132 10.7672C12.41 10.7725 12.4053 10.7765 12.3996 10.7788C12.394 10.7811 12.3877 10.7815 12.3818 10.7799C12.3759 10.7783 12.3707 10.7748 12.3669 10.77C12.3632 10.7652 12.3612 10.7592 12.3611 10.7531V9.69584C12.3611 9.60301 12.3242 9.51398 12.2586 9.44834C12.193 9.3827 12.1039 9.34583 12.0111 9.34583H9.58057C9.48774 9.34583 9.39872 9.3827 9.33308 9.44834C9.26744 9.51398 9.23056 9.60301 9.23056 9.69584V19.4978C9.23056 19.5906 9.26744 19.6796 9.33308 19.7452C9.39872 19.8109 9.48774 19.8478 9.58057 19.8478H12.1416C12.2344 19.8478 12.3234 19.8109 12.3891 19.7452C12.4547 19.6796 12.4916 19.5906 12.4916 19.4978V14.6525C12.4916 13.2825 12.7514 11.9557 14.4499 11.9557C16.1243 11.9557 16.146 13.5234 16.146 14.7413V19.4982C16.146 19.591 16.1829 19.68 16.2485 19.7457C16.3141 19.8113 16.4032 19.8482 16.496 19.8482ZM3.6582 6.01797C3.6582 7.05609 4.51283 7.91028 5.55104 7.91028C6.58898 7.91019 7.44308 7.05548 7.44308 6.01753C7.44291 4.97959 6.58872 4.12549 5.55069 4.12549C4.51239 4.12549 3.6582 4.97985 3.6582 6.01797ZM4.26713 19.8482H6.83153C6.92436 19.8482 7.01339 19.8113 7.07903 19.7457C7.14466 19.68 7.18154 19.591 7.18154 19.4982V9.69584C7.18154 9.60301 7.14466 9.51398 7.07903 9.44834C7.01339 9.3827 6.92436 9.34583 6.83153 9.34583H4.26713C4.1743 9.34583 4.08527 9.3827 4.01963 9.44834C3.954 9.51398 3.91712 9.60301 3.91712 9.69584V19.4982C3.91712 19.591 3.954 19.68 4.01963 19.7457C4.08527 19.8113 4.1743 19.8482 4.26713 19.8482Z" fill="white"/>
  </g>
  <defs>
    <clipPath id="clip0_354_16317">
      <rect width="22.4004" height="22.4004" fill="white" transform="translate(0.333984 0.80127)"/>
    </clipPath>
  </defs>
</svg>