<svg xmlns="http://www.w3.org/2000/svg" width="11" height="15" viewBox="0 0 11 15" fill="none">
  <path d="M2.27225 4.07405C3.08972 3.27294 4.19031 2.82679 5.33487 2.83258C6.47942 2.83836 7.57545 3.29559 8.38479 4.10493C9.19412 4.91426 9.65136 6.01029 9.65714 7.15485C9.66292 8.2994 9.21678 9.4 8.41566 10.2175L6.11956 12.5136C5.91384 12.7192 5.63485 12.8348 5.34396 12.8348C5.05306 12.8348 4.77408 12.7192 4.56835 12.5136L2.27225 10.2175C1.45764 9.40277 1 8.29785 1 7.14576C1 5.99366 1.45764 4.88875 2.27225 4.07405Z" stroke="#9A9A9A" stroke-width="1.19677" stroke-linejoin="round"/>
  <path d="M5.34477 8.7916C6.25359 8.7916 6.99033 8.05486 6.99033 7.14604C6.99033 6.23723 6.25359 5.50049 5.34477 5.50049C4.43596 5.50049 3.69922 6.23723 3.69922 7.14604C3.69922 8.05486 4.43596 8.7916 5.34477 8.7916Z" stroke="#9A9A9A" stroke-width="1.19677" stroke-linecap="round" stroke-linejoin="round"/>
</svg>