<svg width="239" height="41" viewBox="0 0 239 41" fill="none" xmlns="http://www.w3.org/2000/svg">
<g clip-path="url(#clip0_354_21348)">
<path d="M23.3664 37.106V0.844102H31.1368V37.106H23.3664ZM0.625074 37.106V0.844102H8.39547V37.106H0.625074ZM7.41122 21.7206V15.4525H24.6097V21.7206H7.41122Z" fill="#252F3D"/>
<path d="M57.539 37.106V10.9974H64.4288L65.154 15.7633C65.8447 14.6581 66.6563 13.7084 67.5888 12.9141C68.5212 12.1198 69.5918 11.4982 70.8005 11.0492C72.0438 10.6003 73.3734 10.3758 74.7893 10.3758V18.6124H72.1992C71.1631 18.6124 70.2134 18.7333 69.3501 18.975C68.5212 19.1822 67.796 19.5449 67.1743 20.0629C66.5872 20.5809 66.121 21.2889 65.7757 22.1868C65.4649 23.0502 65.3094 24.138 65.3094 25.4504V37.106H57.539ZM91.0118 37.7276C88.318 37.7276 85.9524 37.175 83.9148 36.0699C81.8772 34.9302 80.2714 33.3589 79.0972 31.3559C77.9575 29.3183 77.3877 26.9872 77.3877 24.3625C77.3877 21.6688 77.9575 19.2686 79.0972 17.1619C80.2368 15.0553 81.8254 13.3976 83.863 12.1889C85.9006 10.9802 88.2662 10.3758 90.96 10.3758C93.5846 10.3758 95.8812 10.9456 97.8497 12.0853C99.8182 13.2249 101.355 14.779 102.46 16.7475C103.6 18.6815 104.17 20.9263 104.17 23.4819C104.17 23.8272 104.152 24.2244 104.118 24.6733C104.118 25.0877 104.083 25.5194 104.014 25.9684H82.9306V21.4616H96.2438C96.1748 20.0111 95.6395 18.8542 94.638 17.9908C93.671 17.0929 92.4622 16.6439 91.0118 16.6439C89.9066 16.6439 88.9051 16.9029 88.0072 17.421C87.1093 17.939 86.3841 18.716 85.8315 19.7521C85.3135 20.7881 85.0545 22.1005 85.0545 23.6891V25.2432C85.0545 26.4519 85.2789 27.5225 85.7279 28.4549C86.2114 29.3874 86.8848 30.1126 87.7482 30.6306C88.6461 31.1487 89.6994 31.4077 90.9082 31.4077C92.0478 31.4077 92.9803 31.1832 93.7055 30.7342C94.4653 30.2507 95.0524 29.6464 95.4668 28.9211H103.393C102.909 30.5788 102.08 32.0811 100.906 33.428C99.7319 34.7403 98.2987 35.7936 96.6065 36.5879C94.9142 37.3477 93.0493 37.7276 91.0118 37.7276Z" fill="#252F3D"/>
<path d="M111.34 37.106V0.844102H123.928C128.141 0.844102 131.612 1.60387 134.34 3.12342C137.103 4.60843 139.141 6.71507 140.453 9.44334C141.8 12.1371 142.473 15.3143 142.473 18.975C142.473 22.6012 141.8 25.7784 140.453 28.5067C139.141 31.2005 137.103 33.3071 134.34 34.8266C131.612 36.3462 128.141 37.106 123.928 37.106H111.34ZM119.11 30.4234H123.462C126.259 30.4234 128.469 29.9745 130.092 29.0765C131.716 28.1441 132.855 26.8318 133.511 25.1395C134.202 23.4128 134.548 21.358 134.548 18.975C134.548 16.5576 134.202 14.5027 133.511 12.8105C132.855 11.0838 131.716 9.77143 130.092 8.87351C128.469 7.94107 126.259 7.47484 123.462 7.47484H119.11V30.4234ZM157.083 37.7276C154.908 37.7276 153.06 37.2786 151.541 36.3807C150.055 35.4828 148.916 34.1705 148.122 32.4437C147.362 30.6824 146.982 28.5413 146.982 26.0202V10.9974H154.752V25.2432C154.752 27.1771 155.149 28.6621 155.944 29.6982C156.738 30.6997 158.016 31.2005 159.777 31.2005C160.848 31.2005 161.797 30.9587 162.626 30.4752C163.49 29.9917 164.146 29.2838 164.595 28.3513C165.078 27.4189 165.32 26.2792 165.32 24.9323V10.9974H173.09V37.106H166.304L165.683 32.9617C164.923 34.3777 163.818 35.5346 162.367 36.4325C160.917 37.2959 159.155 37.7276 157.083 37.7276ZM190.499 37.7276C188.185 37.7276 186.078 37.1405 184.179 35.9663C182.314 34.7921 180.829 33.1862 179.724 31.1487C178.653 29.0765 178.118 26.7282 178.118 24.1035C178.118 21.4443 178.67 19.0959 179.775 17.0583C180.881 14.9862 182.383 13.3631 184.282 12.1889C186.216 10.9802 188.357 10.3758 190.706 10.3758C192.502 10.3758 194.073 10.7039 195.42 11.36C196.767 11.9817 197.872 12.8969 198.735 14.1056V-0.19195H206.506V37.106H199.616L198.735 33.7388C198.217 34.464 197.578 35.1375 196.819 35.7591C196.093 36.3462 195.213 36.8124 194.177 37.1578C193.141 37.5376 191.915 37.7276 190.499 37.7276ZM192.519 30.9414C193.797 30.9414 194.919 30.6479 195.886 30.0608C196.888 29.4737 197.647 28.6621 198.165 27.6261C198.718 26.59 198.994 25.3986 198.994 24.0517C198.994 22.7048 198.718 21.5134 198.165 20.4773C197.647 19.4413 196.888 18.6297 195.886 18.0426C194.919 17.4555 193.797 17.1619 192.519 17.1619C191.276 17.1619 190.153 17.4555 189.152 18.0426C188.185 18.6297 187.425 19.4413 186.872 20.4773C186.32 21.5134 186.044 22.6876 186.044 23.9999C186.044 25.3468 186.32 26.5555 186.872 27.6261C187.425 28.6621 188.185 29.4737 189.152 30.0608C190.153 30.6479 191.276 30.9414 192.519 30.9414ZM225.166 37.7276C222.473 37.7276 220.107 37.175 218.07 36.0699C216.032 34.9302 214.426 33.3589 213.252 31.3559C212.112 29.3183 211.542 26.9872 211.542 24.3625C211.542 21.6688 212.112 19.2686 213.252 17.1619C214.392 15.0553 215.98 13.3976 218.018 12.1889C220.055 10.9802 222.421 10.3758 225.115 10.3758C227.739 10.3758 230.036 10.9456 232.004 12.0853C233.973 13.2249 235.51 14.779 236.615 16.7475C237.755 18.6815 238.324 20.9263 238.324 23.4819C238.324 23.8272 238.307 24.2244 238.273 24.6733C238.273 25.0877 238.238 25.5194 238.169 25.9684H217.085V21.4616H230.399C230.329 20.0111 229.794 18.8542 228.793 17.9908C227.826 17.0929 226.617 16.6439 225.166 16.6439C224.061 16.6439 223.06 16.9029 222.162 17.421C221.264 17.939 220.539 18.716 219.986 19.7521C219.468 20.7881 219.209 22.1005 219.209 23.6891V25.2432C219.209 26.4519 219.434 27.5225 219.883 28.4549C220.366 29.3874 221.04 30.1126 221.903 30.6306C222.801 31.1487 223.854 31.4077 225.063 31.4077C226.203 31.4077 227.135 31.1832 227.86 30.7342C228.62 30.2507 229.207 29.6464 229.621 28.9211H237.547C237.064 30.5788 236.235 32.0811 235.061 33.428C233.887 34.7403 232.453 35.7936 230.761 36.5879C229.069 37.3477 227.204 37.7276 225.166 37.7276Z" fill="#252F3D"/>
<mask id="mask0_354_21348" style="mask-type:alpha" maskUnits="userSpaceOnUse" x="37" y="0" width="15" height="40">
<path d="M51.397 0H37.9824L40.2191 6.91902H49.1603L51.397 0Z" fill="black"/>
<path d="M49.1998 8.73242H40.2586L37.4277 29.6362L44.7295 39.4499L51.9662 29.6362L49.1998 8.73242Z" fill="black"/>
</mask>
<g mask="url(#mask0_354_21348)">
<path d="M36.3047 0H45.2514V40.2603H36.3047V20.1301V0Z" fill="#772474"/>
<path d="M44.6816 -0.0532216H53.6284V40.207H44.6816V-0.0532216Z" fill="#943195"/>
</g>
</g>
<defs>
<clipPath id="clip0_354_21348">
<rect width="238.207" height="40.2603" fill="white" transform="translate(0.498047)"/>
</clipPath>
</defs>
</svg>
