<svg xmlns="http://www.w3.org/2000/svg" width="13" height="14" viewBox="0 0 13 14" fill="none">
  <path d="M8.125 5.30127H4.875M8.125 6.92627H4.875M6.5 10.1763L4.875 8.55127H5.6875C6.11848 8.55127 6.5318 8.38007 6.83655 8.07532C7.1413 7.77057 7.3125 7.35725 7.3125 6.92627C7.3125 6.49529 7.1413 6.08197 6.83655 5.77722C6.5318 5.47247 6.11848 5.30127 5.6875 5.30127M11.375 7.33252C11.375 7.97271 11.2489 8.60664 11.0039 9.1981C10.7589 9.78956 10.3998 10.327 9.94715 10.7797C9.49446 11.2324 8.95704 11.5914 8.36558 11.8364C7.77412 12.0814 7.14019 12.2075 6.5 12.2075C5.85981 12.2075 5.22588 12.0814 4.63442 11.8364C4.04296 11.5914 3.50554 11.2324 3.05285 10.7797C2.60017 10.327 2.24108 9.78956 1.99609 9.1981C1.7511 8.60664 1.625 7.97271 1.625 7.33252C1.625 6.03959 2.13861 4.79961 3.05285 3.88537C3.96709 2.97113 5.20707 2.45752 6.5 2.45752C7.79293 2.45752 9.03291 2.97113 9.94715 3.88537C10.8614 4.79961 11.375 6.03959 11.375 7.33252Z" stroke="#6F6F6F" stroke-linecap="round" stroke-linejoin="round"/>
</svg>