<svg xmlns="http://www.w3.org/2000/svg" width="13" height="14" viewBox="0 0 13 14" fill="none">
  <g clip-path="url(#clip0_354_11617)">
    <path d="M8.125 5.70752C8.125 5.27654 7.9538 4.86322 7.64905 4.55847C7.3443 4.25372 6.93098 4.08252 6.5 4.08252C6.06902 4.08252 5.6557 4.25372 5.35095 4.55847C5.0462 4.86322 4.875 5.27654 4.875 5.70752C4.875 6.1385 5.0462 6.55182 5.35095 6.85657C5.6557 7.16131 6.06902 7.33252 6.5 7.33252C6.93098 7.33252 7.3443 7.16131 7.64905 6.85657C7.9538 6.55182 8.125 6.1385 8.125 5.70752ZM11.9167 11.1242C11.9167 10.6932 11.7455 10.2799 11.4407 9.97514C11.136 9.67039 10.7226 9.49919 10.2917 9.49919C9.86069 9.49919 9.44736 9.67039 9.14262 9.97514C8.83787 10.2799 8.66667 10.6932 8.66667 11.1242C8.66667 11.5552 8.83787 11.9685 9.14262 12.2732C9.44736 12.578 9.86069 12.7492 10.2917 12.7492C10.7226 12.7492 11.136 12.578 11.4407 12.2732C11.7455 11.9685 11.9167 11.5552 11.9167 11.1242Z" stroke="#6F6F6F" stroke-linecap="round" stroke-linejoin="round"/>
    <path d="M11.8357 8.26484C11.8881 7.96186 11.9146 7.65131 11.9154 7.33317C11.9154 4.34155 9.49032 1.9165 6.4987 1.9165C3.50707 1.9165 1.08203 4.34155 1.08203 7.33317C1.08203 10.3248 3.50707 12.7498 6.4987 12.7498C6.81684 12.7498 7.12739 12.7233 7.43036 12.6702" stroke="#6F6F6F" stroke-linecap="round" stroke-linejoin="round"/>
    <path d="M3.78906 10.0408C3.78908 9.48028 3.963 8.93357 4.28684 8.47608C4.61068 8.01859 5.06849 7.67284 5.59713 7.48652C6.12578 7.30021 6.6992 7.2825 7.23833 7.43584C7.77746 7.58918 8.25573 7.90602 8.60719 8.34266" stroke="#6F6F6F" stroke-linecap="round" stroke-linejoin="round"/>
  </g>
  <defs>
    <clipPath id="clip0_354_11617">
      <rect width="13" height="13" fill="white" transform="translate(0 0.83252)"/>
    </clipPath>
  </defs>
</svg>