<svg xmlns="http://www.w3.org/2000/svg" width="11" height="12" viewBox="0 0 11 12" fill="none">
  <g clip-path="url(#clip0_354_11455)">
    <path d="M10.125 5.39502C10.125 6.60507 9.64431 7.76556 8.78867 8.62119C7.93304 9.47683 6.77255 9.95752 5.5625 9.95752M10.125 5.39502C10.125 4.18497 9.64431 3.02448 8.78867 2.16884C7.93304 1.31321 6.77255 0.83252 5.5625 0.83252M10.125 5.39502H1M5.5625 9.95752C4.35245 9.95752 3.19196 9.47683 2.33633 8.62119C1.48069 7.76556 1 6.60507 1 5.39502M5.5625 9.95752C6.54242 9.95752 7.33681 7.91453 7.33681 5.39502C7.33681 2.87551 6.54242 0.83252 5.5625 0.83252M5.5625 9.95752C4.58258 9.95752 3.78819 7.91453 3.78819 5.39502C3.78819 2.87551 4.58258 0.83252 5.5625 0.83252M5.5625 0.83252C4.35245 0.83252 3.19196 1.31321 2.33633 2.16884C1.48069 3.02448 1 4.18497 1 5.39502" stroke="#9A9A9A" stroke-width="1.10606" stroke-linejoin="round"/>
  </g>
  <defs>
    <clipPath id="clip0_354_11455">
      <rect width="11" height="11" fill="white" transform="translate(0 0.33252)"/>
    </clipPath>
  </defs>
</svg>