<svg xmlns="http://www.w3.org/2000/svg" width="20" height="21" viewBox="0 0 20 21" fill="none">
  <path fill-rule="evenodd" clip-rule="evenodd" d="M15.315 5.38826C14.6228 4.69203 13.7994 4.13999 12.8925 3.76408C11.9855 3.38817 11.013 3.19585 10.0312 3.19826C5.91562 3.19826 2.5625 6.54826 2.5625 10.6639C2.55991 11.9743 2.9036 13.2621 3.55875 14.397L2.5 18.2664L6.46 17.2264C7.55501 17.8228 8.78183 18.1359 10.0287 18.137H10.0319C14.1481 18.137 17.4975 14.7876 17.5 10.6689C17.5 8.67451 16.7238 6.79951 15.315 5.38764V5.38826ZM10.0312 16.8751H10.0287C8.91722 16.8751 7.82609 16.5766 6.86938 16.0108L6.6425 15.8764L4.29125 16.492L4.91875 14.2014L4.7725 13.967C4.15025 12.9778 3.82087 11.8326 3.8225 10.6639C3.8225 7.24389 6.60813 4.46076 10.0338 4.46076C10.849 4.45862 11.6566 4.61828 12.4098 4.93047C13.1629 5.24267 13.8466 5.7012 14.4212 6.27951C14.9987 6.85507 15.4564 7.53927 15.768 8.29264C16.0796 9.046 16.239 9.85362 16.2369 10.6689C16.2369 14.092 13.4519 16.8751 10.0312 16.8751ZM13.4344 12.2264C13.2488 12.1339 12.3306 11.6826 12.16 11.6214C11.9894 11.5576 11.8644 11.5283 11.74 11.7139C11.615 11.9014 11.2587 12.322 11.1494 12.4464C11.0419 12.5683 10.9319 12.5858 10.7463 12.4926C10.5588 12.4001 9.95813 12.202 9.245 11.5651C8.69062 11.0714 8.315 10.4589 8.2075 10.2733C8.0975 10.0858 8.195 9.98576 8.28813 9.89201C8.37312 9.80951 8.47563 9.67514 8.56875 9.56514C8.66125 9.45826 8.69375 9.38014 8.75625 9.25514C8.8175 9.13076 8.78625 9.02076 8.73938 8.92827C8.69312 8.83576 8.32 7.91514 8.16375 7.54139C8.01188 7.17764 7.85813 7.22889 7.74375 7.22201C7.63625 7.21701 7.51187 7.21701 7.3875 7.21701C7.2625 7.21701 7.06 7.26326 6.88875 7.45139C6.71813 7.63701 6.23688 8.08889 6.23688 9.00639C6.23688 9.92451 6.90563 10.8126 6.99938 10.9376C7.09188 11.0595 8.315 12.9439 10.1869 13.7526C10.5338 13.9025 10.8885 14.0337 11.2494 14.1458C11.6962 14.287 12.1038 14.2676 12.4263 14.2208C12.785 14.1676 13.5294 13.7695 13.6856 13.3326C13.84 12.8983 13.84 12.5245 13.7931 12.4464C13.7469 12.3683 13.6225 12.3214 13.4344 12.2264Z" fill="#16A149"/>
</svg>