<svg xmlns="http://www.w3.org/2000/svg" width="11" height="12" viewBox="0 0 11 12" fill="none">
  <g clip-path="url(#clip0_354_11445)">
    <path fill-rule="evenodd" clip-rule="evenodd" d="M8.64288 2.30955C8.17604 1.83998 7.62071 1.46767 7.00904 1.21414C6.39736 0.960612 5.74147 0.830908 5.07934 0.832535C2.30362 0.832535 0.0421521 3.09189 0.0421521 5.86761C0.0404086 6.7514 0.272199 7.61996 0.714058 8.38536L0 10.995L2.67076 10.2936C3.40928 10.6959 4.23669 10.907 5.07765 10.9077H5.07976C7.8559 10.9077 10.1148 8.64881 10.1165 5.87098C10.1165 4.52591 9.59299 3.26134 8.64288 2.30913V2.30955ZM5.07934 10.0567H5.07765C4.328 10.0567 3.5921 9.85536 2.94686 9.47373L2.79385 9.3831L1.20808 9.7983L1.63129 8.25342L1.53265 8.09535C1.11299 7.42818 0.890843 6.6558 0.89194 5.86761C0.89194 3.56104 2.77066 1.68401 5.08102 1.68401C5.63087 1.68256 6.17554 1.79024 6.68348 2.0008C7.19142 2.21135 7.65253 2.5206 8.0401 2.91064C8.42953 3.29881 8.73823 3.76026 8.9484 4.26836C9.15857 4.77645 9.26605 5.32114 9.26462 5.87098C9.26462 8.17966 7.38632 10.0567 5.07934 10.0567ZM7.37452 6.92142C7.24933 6.85903 6.63011 6.55469 6.51504 6.51338C6.39996 6.47039 6.31566 6.45058 6.23178 6.57577C6.14747 6.70222 5.90721 6.98591 5.83344 7.06979C5.76094 7.15199 5.68675 7.16379 5.56156 7.10098C5.4351 7.0386 5.03002 6.90498 4.54906 6.47545C4.17517 6.14244 3.92184 5.72935 3.84934 5.60416C3.77515 5.4777 3.84091 5.41026 3.90371 5.34703C3.96104 5.29139 4.03017 5.20076 4.09298 5.12658C4.15536 5.0545 4.17728 5.00181 4.21943 4.9175C4.26074 4.83362 4.23967 4.75943 4.20805 4.69705C4.17686 4.63466 3.92521 4.01376 3.81983 3.76169C3.7174 3.51636 3.61371 3.55093 3.53657 3.54629C3.46407 3.54292 3.38018 3.54292 3.2963 3.54292C3.21199 3.54292 3.07542 3.57411 2.95993 3.70099C2.84485 3.82618 2.52028 4.13094 2.52028 4.74974C2.52028 5.36895 2.97131 5.96793 3.03453 6.05224C3.09692 6.13443 3.92184 7.40532 5.18429 7.95077C5.41827 8.05183 5.65747 8.14034 5.90088 8.21591C6.20227 8.31117 6.4771 8.29811 6.69461 8.26649C6.93656 8.23066 7.43859 7.96215 7.54397 7.66751C7.64809 7.37455 7.64809 7.12248 7.61648 7.06979C7.58528 7.0171 7.5014 6.98549 7.37452 6.92142Z" fill="#9A9A9A"/>
  </g>
  <defs>
    <clipPath id="clip0_354_11445">
      <rect width="11" height="11" fill="white" transform="translate(0 0.33252)"/>
    </clipPath>
  </defs>
</svg>